# xmcd
#
# Track frame offsets:
#	150
#	17707
#	29809
#	41786
#	58933
#	79505
#	93102
#	112524
#
# Disc length: 1725 seconds
#
# Revision: 0
# Processed by: cddbd v1.5.2PL0 Copyright (c) Steve Scherf et al.
# Submitted via: audiograbber 1.83.01
#
DISCID=5a06bb08
DTITLE=Paul Tilley - Paul Tilley Sings Marty's Greatest Eight
DYEAR=1900
DGENRE=Country
TTITLE0=Big Iron
TTITLE1=A White Sport Coat
TTITLE2=Streets of Loredo
TTITLE3=Don't Worry
TTITLE4=El Paso
TTITLE5=Devil Woman
TTITLE6=El Paso City
TTITLE7=My Woman, My Woman, My Wife
EXTD=
EXTT0=
EXTT1=
EXTT2=
EXTT3=
EXTT4=
EXTT5=
EXTT6=
EXTT7=
PLAYORDER=
